<?xml version="1.0" encoding="UTF-8" standalone="no"?>
<!DOCTYPE svg PUBLIC "-//W3C//DTD SVG 1.1//EN" "http://www.w3.org/Graphics/SVG/1.1/DTD/svg11.dtd">
<svg width="100%" height="100%" viewBox="0 0 15 15" version="1.1" xmlns="http://www.w3.org/2000/svg" xmlns:xlink="http://www.w3.org/1999/xlink" xml:space="preserve" xmlns:serif="http://www.serif.com/" style="fill-rule:evenodd;clip-rule:evenodd;stroke-linejoin:round;stroke-miterlimit:2;">
    <g transform="matrix(1,0,0,1,-467.009,-13.4666)">
        <g transform="matrix(0.781136,0,0,0.781136,102.211,2.94735)">
            <rect x="467.009" y="13.467" width="19.203" height="19.203" style="fill:none;"/>
            <clipPath id="_clip1">
                <rect x="467.009" y="13.467" width="19.203" height="19.203"/>
            </clipPath>
            <g clip-path="url(#_clip1)">
                <g transform="matrix(0.0709792,0,0,0.0709792,438.202,-7.45352)">
                    <path d="M561.629,373.98C561.629,373.98 590.703,353.712 621.104,352.377C621.148,352.375 619.802,348.45 620.681,346.663C621.561,344.875 623.79,347.111 623.79,347.111L623.749,345.036L628.201,350.398L628.542,346.814L631.299,352.063L633.558,349.513L634.918,355.583L636.547,354.386L638.902,360.666L640.622,361.453L642.845,368.158L641.766,370.09C641.766,370.09 642.7,371.563 642.7,373.641C642.7,375.718 648.758,381.593 648.473,385.779C648.379,387.168 639.266,381.549 636.986,382.29C636.464,382.46 630.131,391.56 625.133,391.335C620.135,391.11 616.085,384.685 616.085,384.685C616.085,384.685 606.263,393.702 603,397.801C599.738,401.9 597.794,405.555 596.723,408.211C595.652,410.866 593.994,410.801 593.994,410.801C593.994,410.801 595.768,428.812 591.423,436.921C584.944,449.012 567.68,460.636 567.68,460.636C567.68,460.636 569.824,475.154 569.492,482.95C569.16,490.746 567.312,504.709 567.312,504.709C567.312,504.709 587.334,526.371 590.23,530.329C593.127,534.287 601.858,543.805 601.858,543.805C601.858,543.805 607.512,544.128 610.292,543.637C613.072,543.146 616.472,542.874 618.142,543.301C619.813,543.729 621.657,546.858 621.657,546.858C621.657,546.858 618.539,546.21 617.722,547.441C616.905,548.671 618.146,549.886 616.663,549.966C615.181,550.047 608.779,549.784 608.779,549.784C608.779,549.784 613.388,553.249 616.831,554.803C620.274,556.357 623.451,558.203 626.121,559.409C628.792,560.614 629.791,563.455 629.791,563.455C629.791,563.455 623.745,561.973 622.806,561.973C621.867,561.973 624.961,565.277 624.961,565.277C624.961,565.277 609.682,559.861 607.327,557.477C604.972,555.094 597.296,549.781 597.296,549.781L591.321,553.06C591.321,553.06 594.076,558.99 594.076,560.756C594.076,562.523 593.031,564.147 593.031,564.147C593.031,564.147 590.526,560.291 588.866,558.018C587.205,555.744 584.984,552.937 584.984,552.937C584.984,552.937 584.938,549.722 584.166,546.507C583.395,543.293 580.592,542.483 580.592,542.483C580.592,542.483 576.242,545.281 575.144,546.388C574.046,547.496 571.489,548.899 570.479,548.502C569.468,548.104 569.843,545.795 568.904,547.056C567.965,548.317 565.456,548.503 565.456,548.503C565.456,548.503 565.77,545.73 567.765,543.618C569.76,541.505 571.72,542.859 573.95,540.391C576.18,537.923 578.351,534.366 578.351,534.366C578.351,534.366 570.323,522.694 567.677,519.861C565.032,517.027 556.585,511.042 556.585,511.042L551.742,502.882C551.742,502.882 545.69,499.849 544.154,498.397C542.618,496.944 542.283,491.266 540.605,487.731C538.927,484.197 532.791,479.191 532.791,479.191C532.791,479.191 527.816,481.199 525.407,482.146C522.998,483.093 524.404,485.137 524.404,485.137L522.162,484.696L520.638,486.664L517.581,484.007L520.456,489.641L519.037,491.922L516.427,490.794L514.409,491.716L512.098,486.363C512.098,486.363 510.417,487.037 509.461,489.311C508.506,491.585 507.855,495.951 506.058,497.398C504.262,498.845 503.202,496.463 501.366,501.186C499.53,505.909 497.843,508.094 497.843,508.094C497.843,508.094 501.454,522.766 501.454,526.983C501.454,531.2 502.798,537.105 502.798,537.105C502.798,537.105 508.634,539.387 511.514,539.387C514.394,539.387 515.585,538.747 518.966,538.067C522.348,537.387 526.804,538.213 526.804,538.213L524.283,540.181C524.283,540.181 522.065,542.306 519.439,542.72C516.813,543.134 514.578,543.77 514.578,543.77C514.578,543.77 523.374,547.855 525.65,547.931C527.925,548.007 530.977,549.402 533.44,550.198C535.903,550.994 540.531,554.362 540.531,554.362C540.531,554.362 523.528,552.47 528.14,553.01C532.752,553.551 512.495,551.109 509.603,549.229C506.71,547.35 501.967,546.209 501.967,546.209C501.967,546.209 503.204,547.774 503.526,550.391C503.849,553.009 502.762,555.032 502.762,555.032C502.762,555.032 497.299,550.793 496.782,548.568C496.265,546.344 495.338,543.034 494.718,540.949C494.097,538.865 493.378,539.084 493.378,539.084C493.378,539.084 489.608,539.345 489.154,539.056C488.701,538.768 488.852,536.748 488.852,536.748L493.222,534.489C493.222,534.489 493.396,529.527 491.178,519.782C488.961,510.038 484.874,501.845 484.874,501.845C484.874,501.845 482.215,498.998 480.891,496.567C479.567,494.136 476.721,484.182 476.721,484.182L474.26,486.676L471.934,483.982L470.415,484.963L468.756,481.163L470.037,479.823L469.338,477.497L471.861,473.659L468.028,473.265L467.394,471.08L466.381,470.728L467.09,468.255C467.09,468.255 464.842,464.91 464.618,460.433C464.394,455.957 466.036,453.381 466.036,453.381C466.036,453.381 460.022,450.443 457.522,449.425C455.021,448.406 453.554,447.493 453.554,447.493C453.554,447.493 452.557,449.073 451.237,449.365C449.917,449.657 447.005,449.914 447.005,449.914C447.005,449.914 443.312,445.222 443.503,443.052C443.694,440.883 444.832,438.764 444.832,438.764C444.832,438.764 443.806,436.316 445.222,435.084C446.638,433.853 447.667,433.507 447.667,433.507L442.694,433.229L443.126,429.162C443.126,429.162 440.354,425.152 438.917,423.634C437.479,422.117 435.065,421.04 435.065,421.04L437.201,419.802L435.824,417.075L435.373,415.573L437.278,415.284L435.959,413.005C435.959,413.005 433.79,409.413 437.148,402.696C440.506,395.979 446.416,395.492 446.416,395.492C446.416,395.492 442.27,392.046 441.12,390.741C439.971,389.437 441.45,388.564 441.45,388.564C441.45,388.564 439.166,387.947 439.056,386.083C438.946,384.218 440.648,383.549 440.648,383.549C440.648,383.549 438.101,380.218 438.132,376.503C438.163,372.789 441.522,371.488 441.522,371.488C441.522,371.488 440.493,364.202 440.493,361.741C440.493,359.281 441.713,358.795 441.713,358.795C441.713,358.795 440.381,355.097 441.595,351.128C442.809,347.159 445.381,345.268 445.381,345.268C445.381,345.268 440.703,340.905 441.533,337.661C442.362,334.417 446.323,331.336 446.323,331.336C446.323,331.336 444.698,329.462 446.719,326.978C448.74,324.494 450.219,322.772 450.219,322.772C450.219,322.772 445.516,310.15 442.783,308.384C440.049,306.617 433.771,302.986 433.771,302.986C433.771,302.986 436.433,301.286 436.492,300.869C436.551,300.452 436.802,298.288 436.802,298.288L440.756,297.571L440.528,296.364L443.028,294.736C443.028,294.736 445.662,296.185 447.744,296.185C449.826,296.185 462.251,307.271 463.895,310.202C465.539,313.132 469.938,322.136 473.382,324.412C476.826,326.689 488.629,338.154 491.017,340.522C493.405,342.89 497.311,353.116 497.311,353.116C497.311,353.116 515.12,359.001 519.972,359.42C524.825,359.838 543.962,365.983 548.19,367.653C552.418,369.322 561.629,373.98 561.629,373.98Z" style="fill:rgb(57,154,234);"/>
                </g>
            </g>
        </g>
    </g>
</svg>
